# xmcd
#
# Track frame offsets: 
#        150
#        11768
#        23113
#        41033
#        52809
#        65250
#        76125
#        87186
#        98328
#        111630
#        126579
#        140103
#        154191
#        167025
#        177436
#        189942
#        203506
#        212722
#        225433
#        236963
#        250568
#        262429
#        275465
#        287445
#        299378
#
# Disc length: 4274 seconds
#
# Revision: 3
# Processed by: cddbd v1.5.2PL0 Copyright (c) Steve Scherf et al.
# Submitted via: ExactAudioCopyFreeDBPlugin 1.0
#
DISCID=6710b019
DTITLE=Various Artist - Southern Soul Showcase:  Crying in the Street
DTITLE=s
DYEAR=2005
DGENRE=Soul
TTITLE0=Bettye LaVette - He Made a Woman Out of Me
TTITLE1=Big John Hamilton - I Have No One
TTITLE2=Johnny Adams - Reconsider Me
TTITLE3=Danny White - One Way Love Affair
TTITLE4=Reuben Bell - Too Late
TTITLE5=Eddie Giles - So Deep in Love
TTITLE6=Oscar Irwin - My Pillow Stays Wet
TTITLE7=Johnny Soul - Lonely Man
TTITLE8=Peggy Scott - You Can Never Get Something for Nothing
TTITLE9=George Perkins - Cryin' in the Streets, Part 1
TTITLE10=Gable Reed - I'm Your Man
TTITLE11=Johnny Dynamite - Everybody's Clown
TTITLE12=Johnny Adams - I Want to Walk Through This Life with You
TTITLE13=Clarence Murray - Dancing to the Beat
TTITLE14=Big John Hamilton - How Much Can a Man Take?
TTITLE15=Doris Allen - A Shell of a Woman
TTITLE16=Mickey Murray - Mama's Got the Wagon
TTITLE17=Peggy Scott and Jo Jo Benson - 'Til the Morning Comes
TTITLE18=Big John Hamilton - I'm Getting it from Her
TTITLE19=Double Soul - Blue Diamonds
TTITLE20=Johnny Adams - In a Moment of Weakness
TTITLE21=Clarence Murray - Poor Boy
TTITLE22=Sam Dees - Lonely for You Baby
TTITLE23=Double Soul - I Can't Use You
TTITLE24=Calvin Leavy - Cummins Prison Farm
EXTD=compilation of SSS International recordings, 1967-1970 YEAR: 2005
EXTT0=
EXTT1=
EXTT2=
EXTT3=
EXTT4=
EXTT5=
EXTT6=
EXTT7=
EXTT8=
EXTT9=
EXTT10=
EXTT11=
EXTT12=
EXTT13=
EXTT14=
EXTT15=
EXTT16=
EXTT17=
EXTT18=
EXTT19=
EXTT20=
EXTT21=
EXTT22=
EXTT23=
EXTT24=
PLAYORDER=
